# xmcd CD database file
#
# Track frame offsets:
#	150
#	17062
#	31970
#	49940
#	63678
#	82618
#	99307
#	115522
#	134707
#	158122
#	180592
#	196822
#	222490
#	237496
#	256138
#
# Disc length: 3807 seconds
#
# Revision: 1
# Processed by: cddbd v1.4PL0 Copyright (c) Steve Scherf et al.
# Submitted via: CDex 1.40Release
#
DISCID=c70edd0f
DTITLE=Faith Hill - There You'll Be
DYEAR=1900
DGENRE=Country
TTITLE0=There You'll Be
TTITLE1=The Kiss
TTITLE2=Breathe (remix)
TTITLE3=The Way You Love Me
TTITLE4=Let Me Let Go
TTITLE5=Piece Of My Heart
TTITLE6=If My Heart Had Wings
TTITLE7=There Will Come A Day
TTITLE8=Love Will Always Win
TTITLE9=My Wild Frontier
TTITLE10=You Give Me Love
TTITLE11=Somewhere Down The Road
TTITLE12=Over The Rainbow
TTITLE13=Breathe
TTITLE14=The Way You Love Me (remix)
EXTD=ID3G: 2
EXTT0=
EXTT1=
EXTT2=
EXTT3=
EXTT4=
EXTT5=
EXTT6=
EXTT7=
EXTT8=
EXTT9=
EXTT10=
EXTT11=
EXTT12=
EXTT13=
EXTT14=
PLAYORDER=
